STARTFONT 2.1
FONT -B&H-Lucida Sans-Medium-R-Normal-Sans-20-200-72-72-P-114-ISO8859-1
SIZE 20 72 72
FONTBOUNDINGBOX 25 22 -5 -4

STARTPROPERTIES 22
FONTNAME_REGISTRY "-"
FOUNDRY "B&H"
FAMILY_NAME "Lucida Sans"
WEIGHT_NAME "Medium"
SLANT "R"
SETWIDTH_NAME "Normal"
ADD_STYLE_NAME "Sans"
SPACING "P"
CHARSET_REGISTRY "ISO8859"
CHARSET_ENCODING "1"
PIXEL_SIZE 20
POINT_SIZE 200
RESOLUTION_X 72
RESOLUTION_Y 72
AVERAGE_WIDTH 114
FULL_NAME "LucidaSans"
WEIGHT 10
X_HEIGHT 11
QUAD_WIDTH 12
DEFAULT_CHAR 32
FONT_DESCENT 5
FONT_ASCENT 19
ENDPROPERTIES

CHARS 190

STARTCHAR space
ENCODING 32
SWIDTH 316 0
DWIDTH 6 0
BBX 1 1 0 0
BITMAP
00
ENDCHAR

STARTCHAR exclam
ENCODING 33
SWIDTH 316 0
DWIDTH 6 0
BBX 2 14 2 0
BITMAP
C0
C0
C0
C0
C0
80
80
80
80
80
00
00
C0
C0
ENDCHAR

STARTCHAR quotedbl
ENCODING 34
SWIDTH 373 0
DWIDTH 7 0
BBX 5 5 1 10
BITMAP
D8
D8
D8
90
90
ENDCHAR

STARTCHAR numbersign
ENCODING 35
SWIDTH 633 0
DWIDTH 13 0
BBX 12 14 0 0
BITMAP
0640
0440
04C0
7FF0
0880
0880
0900
1100
FFE0
1100
1100
3200
2200
2200
ENDCHAR

STARTCHAR dollar
ENCODING 36
SWIDTH 633 0
DWIDTH 13 0
BBX 7 16 3 -1
BITMAP
10
7E
D2
90
90
90
50
70
18
1C
12
12
12
94
F8
10
ENDCHAR

STARTCHAR percent
ENCODING 37
SWIDTH 669 0
DWIDTH 13 0
BBX 13 14 0 0
BITMAP
7818
CC30
8420
8440
8480
CD00
7B00
06F0
0598
0908
1108
2108
6198
C0F0
ENDCHAR

STARTCHAR ampersand
ENCODING 38
SWIDTH 697 0
DWIDTH 14 0
BBX 13 14 0 0
BITMAP
0780
18C0
18C0
18C0
1D80
0F00
3E00
6618
C318
C198
C0F0
E070
70E0
1F38
ENDCHAR

STARTCHAR quoteright
ENCODING 39
SWIDTH 316 0
DWIDTH 6 0
BBX 2 5 2 10
BITMAP
C0
C0
40
40
80
ENDCHAR

STARTCHAR parenleft
ENCODING 40
SWIDTH 325 0
DWIDTH 7 0
BBX 5 18 1 -3
BITMAP
08
18
30
20
60
40
C0
C0
C0
C0
C0
C0
40
60
20
30
18
08
ENDCHAR

STARTCHAR parenright
ENCODING 41
SWIDTH 325 0
DWIDTH 7 0
BBX 5 18 1 -3
BITMAP
80
C0
60
20
30
10
18
18
18
18
18
18
10
30
20
60
C0
80
ENDCHAR

STARTCHAR asterisk
ENCODING 42
SWIDTH 482 0
DWIDTH 10 0
BBX 8 7 1 7
BITMAP
10
92
FF
00
38
64
46
ENDCHAR

STARTCHAR plus
ENCODING 43
SWIDTH 633 0
DWIDTH 13 0
BBX 11 11 1 0
BITMAP
0400
0400
0400
0400
0400
FFE0
0400
0400
0400
0400
0400
ENDCHAR

STARTCHAR comma
ENCODING 44
SWIDTH 316 0
DWIDTH 6 0
BBX 2 5 2 -3
BITMAP
C0
C0
40
40
80
ENDCHAR

STARTCHAR minus
ENCODING 45
SWIDTH 633 0
DWIDTH 13 0
BBX 12 1 0 5
BITMAP
FFF0
ENDCHAR

STARTCHAR period
ENCODING 46
SWIDTH 316 0
DWIDTH 6 0
BBX 2 2 2 0
BITMAP
C0
C0
ENDCHAR

STARTCHAR slash
ENCODING 47
SWIDTH 494 0
DWIDTH 10 0
BBX 9 18 0 -3
BITMAP
0080
0080
0100
0100
0200
0200
0400
0400
0400
0800
0800
1000
1000
2000
2000
4000
4000
C000
ENDCHAR

STARTCHAR zero
ENCODING 48
SWIDTH 633 0
DWIDTH 13 0
BBX 10 14 1 0
BITMAP
1E00
3300
6180
4080
C0C0
C0C0
C0C0
C0C0
C0C0
C0C0
4080
6180
3300
1E00
ENDCHAR

STARTCHAR one
ENCODING 49
SWIDTH 633 0
DWIDTH 13 0
BBX 4 14 3 0
BITMAP
F0
30
30
30
30
30
30
30
30
30
30
30
30
30
ENDCHAR

STARTCHAR two
ENCODING 50
SWIDTH 633 0
DWIDTH 13 0
BBX 8 14 2 0
BITMAP
7C
86
03
03
03
03
06
0C
18
30
60
40
C0
FF
ENDCHAR

STARTCHAR three
ENCODING 51
SWIDTH 633 0
DWIDTH 13 0
BBX 8 14 2 0
BITMAP
FC
87
03
03
03
06
78
0E
03
03
03
03
86
FC
ENDCHAR

STARTCHAR four
ENCODING 52
SWIDTH 633 0
DWIDTH 13 0
BBX 11 14 1 0
BITMAP
0180
0380
0280
0480
0880
1080
3080
2080
4080
FFE0
0180
0180
0180
0180
ENDCHAR

STARTCHAR five
ENCODING 53
SWIDTH 633 0
DWIDTH 13 0
BBX 7 14 3 0
BITMAP
FE
80
80
80
80
F0
1C
0E
06
06
06
06
8C
F8
ENDCHAR

STARTCHAR six
ENCODING 54
SWIDTH 633 0
DWIDTH 13 0
BBX 10 14 1 0
BITMAP
1F80
3080
6000
4000
C000
DF00
E180
C0C0
C0C0
C0C0
C0C0
6080
3180
1E00
ENDCHAR

STARTCHAR seven
ENCODING 55
SWIDTH 633 0
DWIDTH 13 0
BBX 9 14 2 0
BITMAP
FF80
FF80
0100
0300
0200
0600
0C00
0800
1800
1800
3000
7000
6000
6000
ENDCHAR

STARTCHAR eight
ENCODING 56
SWIDTH 633 0
DWIDTH 13 0
BBX 10 14 2 0
BITMAP
0F00
1180
2080
2080
3080
1900
1E00
2780
43C0
C0C0
C0C0
C0C0
6180
3F00
ENDCHAR

STARTCHAR nine
ENCODING 57
SWIDTH 633 0
DWIDTH 13 0
BBX 10 14 1 0
BITMAP
1E00
6300
4180
C0C0
C0C0
C0C0
C0C0
61C0
3EC0
00C0
0080
0180
4300
7C00
ENDCHAR

STARTCHAR colon
ENCODING 58
SWIDTH 316 0
DWIDTH 6 0
BBX 2 11 2 0
BITMAP
C0
C0
00
00
00
00
00
00
00
C0
C0
ENDCHAR

STARTCHAR semicolon
ENCODING 59
SWIDTH 316 0
DWIDTH 6 0
BBX 2 14 2 -3
BITMAP
C0
C0
00
00
00
00
00
00
00
C0
C0
40
40
80
ENDCHAR

STARTCHAR less
ENCODING 60
SWIDTH 633 0
DWIDTH 13 0
BBX 12 11 0 0
BITMAP
0010
0070
0180
0600
1800
E000
1800
0600
0180
0070
0010
ENDCHAR

STARTCHAR equal
ENCODING 61
SWIDTH 633 0
DWIDTH 13 0
BBX 12 5 0 3
BITMAP
FFF0
0000
0000
0000
FFF0
ENDCHAR

STARTCHAR greater
ENCODING 62
SWIDTH 633 0
DWIDTH 13 0
BBX 11 11 1 0
BITMAP
8000
E000
3800
0E00
0380
00E0
0380
0E00
3800
E000
8000
ENDCHAR

STARTCHAR question
ENCODING 63
SWIDTH 422 0
DWIDTH 8 0
BBX 8 14 0 0
BITMAP
FC
87
03
03
06
04
08
10
30
30
00
00
30
30
ENDCHAR

STARTCHAR at
ENCODING 64
SWIDTH 858 0
DWIDTH 17 0
BBX 15 14 1 0
BITMAP
03E0
0C18
1004
21E6
4222
4462
8842
88C2
89C4
89C8
CEF0
4000
3040
0F80
ENDCHAR

STARTCHAR A
ENCODING 65
SWIDTH 690 0
DWIDTH 14 0
BBX 13 14 0 0
BITMAP
0300
0700
0780
0D80
0D80
08C0
18C0
1060
3060
3FF0
2030
6030
4018
C018
ENDCHAR

STARTCHAR B
ENCODING 66
SWIDTH 575 0
DWIDTH 12 0
BBX 9 14 2 0
BITMAP
FC00
C700
C300
C300
C300
C600
F800
C600
C300
C180
C180
C180
C300
FE00
ENDCHAR

STARTCHAR C
ENCODING 67
SWIDTH 692 0
DWIDTH 14 0
BBX 12 14 1 0
BITMAP
0FF0
3830
6000
6000
C000
C000
C000
C000
C000
C000
6000
7000
3810
0FE0
ENDCHAR

STARTCHAR D
ENCODING 68
SWIDTH 749 0
DWIDTH 15 0
BBX 12 14 2 0
BITMAP
FF00
C1C0
C060
C060
C030
C030
C030
C030
C030
C030
C060
C060
C1C0
FF00
ENDCHAR

STARTCHAR E
ENCODING 69
SWIDTH 542 0
DWIDTH 11 0
BBX 8 14 2 0
BITMAP
FF
C0
C0
C0
C0
C0
FE
C0
C0
C0
C0
C0
C0
FF
ENDCHAR

STARTCHAR F
ENCODING 70
SWIDTH 536 0
DWIDTH 11 0
BBX 8 14 2 0
BITMAP
FF
C0
C0
C0
C0
C0
FE
C0
C0
C0
C0
C0
C0
C0
ENDCHAR

STARTCHAR G
ENCODING 71
SWIDTH 723 0
DWIDTH 14 0
BBX 12 14 1 0
BITMAP
0FF0
3830
6000
6000
C000
C000
C000
C000
C030
C030
6030
7030
3830
0FE0
ENDCHAR

STARTCHAR H
ENCODING 72
SWIDTH 735 0
DWIDTH 15 0
BBX 11 14 2 0
BITMAP
C060
C060
C060
C060
C060
C060
FFE0
C060
C060
C060
C060
C060
C060
C060
ENDCHAR

STARTCHAR I
ENCODING 73
SWIDTH 288 0
DWIDTH 6 0
BBX 2 14 2 0
BITMAP
C0
C0
C0
C0
C0
C0
C0
C0
C0
C0
C0
C0
C0
C0
ENDCHAR

STARTCHAR J
ENCODING 74
SWIDTH 311 0
DWIDTH 6 0
BBX 6 17 -1 -3
BITMAP
0C
0C
0C
0C
0C
0C
0C
0C
0C
0C
0C
0C
0C
0C
0C
18
F0
ENDCHAR

STARTCHAR K
ENCODING 75
SWIDTH 653 0
DWIDTH 13 0
BBX 11 14 2 0
BITMAP
C0C0
C100
C300
C600
CC00
D800
D000
F800
DC00
CE00
C700
C380
C1C0
C0E0
ENDCHAR

STARTCHAR L
ENCODING 76
SWIDTH 533 0
DWIDTH 11 0
BBX 9 14 2 0
BITMAP
C000
C000
C000
C000
C000
C000
C000
C000
C000
C000
C000
C000
C000
FF80
ENDCHAR

STARTCHAR M
ENCODING 77
SWIDTH 861 0
DWIDTH 17 0
BBX 13 14 2 0
BITMAP
E018
E038
E038
B078
B058
B058
9898
9898
8898
8D18
8D18
8518
8618
8018
ENDCHAR

STARTCHAR N
ENCODING 78
SWIDTH 739 0
DWIDTH 15 0
BBX 10 14 2 0
BITMAP
C040
E040
E040
B040
B840
9840
8C40
8C40
8640
8740
8340
81C0
81C0
80C0
ENDCHAR

STARTCHAR O
ENCODING 79
SWIDTH 777 0
DWIDTH 16 0
BBX 13 14 1 0
BITMAP
0F80
3060
6030
6030
C018
C018
C018
C018
C018
C018
6030
6030
3060
0F80
ENDCHAR

STARTCHAR P
ENCODING 80
SWIDTH 553 0
DWIDTH 11 0
BBX 9 14 2 0
BITMAP
FE00
C380
C180
C180
C180
C380
C700
FC00
C000
C000
C000
C000
C000
C000
ENDCHAR

STARTCHAR Q
ENCODING 81
SWIDTH 777 0
DWIDTH 16 0
BBX 14 17 2 -3
BITMAP
0F80
3060
6030
6030
C018
C018
C018
C018
C018
C018
6030
6030
3060
0FC0
00E0
003C
0008
ENDCHAR

STARTCHAR R
ENCODING 82
SWIDTH 633 0
DWIDTH 13 0
BBX 11 14 2 0
BITMAP
FE00
C300
C180
C180
C180
C300
FF00
CC00
C600
C300
C300
C180
C1C0
C0E0
ENDCHAR

STARTCHAR S
ENCODING 83
SWIDTH 539 0
DWIDTH 11 0
BBX 9 14 1 0
BITMAP
3F00
6100
C000
C000
E000
7000
3C00
0F00
0380
0180
0180
0180
8300
FE00
ENDCHAR

STARTCHAR T
ENCODING 84
SWIDTH 633 0
DWIDTH 13 0
BBX 12 14 0 0
BITMAP
FFF0
0600
0600
0600
0600
0600
0600
0600
0600
0600
0600
0600
0600
0600
ENDCHAR

STARTCHAR U
ENCODING 85
SWIDTH 693 0
DWIDTH 14 0
BBX 10 14 2 0
BITMAP
C0C0
C0C0
C0C0
C0C0
C0C0
C0C0
C0C0
C0C0
C0C0
C0C0
C0C0
C0C0
6180
3F00
ENDCHAR

STARTCHAR V
ENCODING 86
SWIDTH 654 0
DWIDTH 13 0
BBX 12 14 0 0
BITMAP
C010
6030
6020
6020
3060
3040
1840
18C0
1880
0D80
0D00
0700
0700
0600
ENDCHAR

STARTCHAR W
ENCODING 87
SWIDTH 855 0
DWIDTH 17 0
BBX 17 14 0 0
BITMAP
C0C180
40C100
61C100
614100
616300
216200
326200
322600
323400
123400
1C3400
1C3C00
1C1800
0C1800
ENDCHAR

STARTCHAR X
ENCODING 88
SWIDTH 626 0
DWIDTH 13 0
BBX 12 14 0 0
BITMAP
E020
7040
30C0
1880
1D00
0F00
0600
0700
0B00
1980
11C0
20C0
60E0
C070
ENDCHAR

STARTCHAR Y
ENCODING 89
SWIDTH 623 0
DWIDTH 12 0
BBX 12 14 0 0
BITMAP
E030
6060
7040
30C0
1880
1900
0D00
0E00
0600
0600
0600
0600
0600
0600
ENDCHAR

STARTCHAR Z
ENCODING 90
SWIDTH 605 0
DWIDTH 12 0
BBX 9 14 2 0
BITMAP
FF80
0180
0300
0300
0600
0E00
0C00
1800
3800
3000
6000
6000
C000
FF80
ENDCHAR

STARTCHAR bracketleft
ENCODING 91
SWIDTH 325 0
DWIDTH 7 0
BBX 4 18 2 -3
BITMAP
F0
80
80
80
80
80
80
80
80
80
80
80
80
80
80
80
80
F0
ENDCHAR

STARTCHAR backslash
ENCODING 92
SWIDTH 494 0
DWIDTH 10 0
BBX 9 18 0 -3
BITMAP
C000
4000
4000
2000
2000
1000
1000
0800
0800
0400
0400
0400
0200
0200
0100
0100
0080
0080
ENDCHAR

STARTCHAR bracketright
ENCODING 93
SWIDTH 325 0
DWIDTH 7 0
BBX 4 18 1 -3
BITMAP
F0
10
10
10
10
10
10
10
10
10
10
10
10
10
10
10
10
F0
ENDCHAR

STARTCHAR asciicircum
ENCODING 94
SWIDTH 633 0
DWIDTH 13 0
BBX 12 10 0 3
BITMAP
0600
0600
0900
0900
1080
1080
2040
2040
4020
C030
ENDCHAR

STARTCHAR underscore
ENCODING 95
SWIDTH 500 0
DWIDTH 10 0
BBX 8 1 1 -1
BITMAP
FF
ENDCHAR

STARTCHAR quoteleft
ENCODING 96
SWIDTH 316 0
DWIDTH 6 0
BBX 2 6 2 9
BITMAP
40
80
80
80
C0
C0
ENDCHAR

STARTCHAR a
ENCODING 97
SWIDTH 552 0
DWIDTH 11 0
BBX 10 11 1 0
BITMAP
3E00
4300
0300
0300
0300
3F00
6300
C300
C300
C500
79C0
ENDCHAR

STARTCHAR b
ENCODING 98
SWIDTH 630 0
DWIDTH 13 0
BBX 10 15 2 0
BITMAP
C000
C000
C000
C000
CF00
F180
C0C0
C0C0
C0C0
C0C0
C0C0
C0C0
C180
E180
DE00
ENDCHAR

STARTCHAR c
ENCODING 99
SWIDTH 512 0
DWIDTH 10 0
BBX 8 11 1 0
BITMAP
1F
70
60
C0
C0
C0
C0
C0
60
71
1F
ENDCHAR

STARTCHAR d
ENCODING 100
SWIDTH 630 0
DWIDTH 13 0
BBX 10 15 1 0
BITMAP
00C0
00C0
00C0
00C0
1EC0
61C0
60C0
C0C0
C0C0
C0C0
C0C0
C0C0
C0C0
63C0
3CC0
ENDCHAR

STARTCHAR e
ENCODING 101
SWIDTH 557 0
DWIDTH 11 0
BBX 9 11 1 0
BITMAP
1E00
6300
4180
C180
C180
FF80
C000
C000
6000
2080
1F80
ENDCHAR

STARTCHAR f
ENCODING 102
SWIDTH 367 0
DWIDTH 7 0
BBX 8 15 0 0
BITMAP
1F
30
30
30
FE
30
30
30
30
30
30
30
30
30
30
ENDCHAR

STARTCHAR g
ENCODING 103
SWIDTH 623 0
DWIDTH 12 0
BBX 10 15 1 -4
BITMAP
1EC0
61C0
60C0
C0C0
C0C0
C0C0
C0C0
C0C0
63C0
3CC0
00C0
00C0
0080
4180
7F00
ENDCHAR

STARTCHAR h
ENCODING 104
SWIDTH 620 0
DWIDTH 12 0
BBX 9 15 2 0
BITMAP
C000
C000
C000
C000
CF00
F180
E180
C180
C180
C180
C180
C180
C180
C180
C180
ENDCHAR

STARTCHAR i
ENCODING 105
SWIDTH 289 0
DWIDTH 6 0
BBX 2 14 2 0
BITMAP
C0
C0
00
C0
C0
C0
C0
C0
C0
C0
C0
C0
C0
C0
ENDCHAR

STARTCHAR j
ENCODING 106
SWIDTH 304 0
DWIDTH 6 0
BBX 6 18 -1 -4
BITMAP
0C
0C
00
0C
0C
0C
0C
0C
0C
0C
0C
0C
0C
0C
0C
0C
88
F0
ENDCHAR

STARTCHAR k
ENCODING 107
SWIDTH 584 0
DWIDTH 12 0
BBX 10 15 2 0
BITMAP
C000
C000
C000
C000
C180
C200
C400
C800
D000
F000
D800
CC00
C600
C300
C1C0
ENDCHAR

STARTCHAR l
ENCODING 108
SWIDTH 289 0
DWIDTH 6 0
BBX 2 15 2 0
BITMAP
C0
C0
C0
C0
C0
C0
C0
C0
C0
C0
C0
C0
C0
C0
C0
ENDCHAR

STARTCHAR m
ENCODING 109
SWIDTH 934 0
DWIDTH 19 0
BBX 14 11 2 0
BITMAP
DE78
E38C
E38C
C30C
C30C
C30C
C30C
C30C
C30C
C30C
C30C
ENDCHAR

STARTCHAR n
ENCODING 110
SWIDTH 620 0
DWIDTH 12 0
BBX 9 11 2 0
BITMAP
CF00
F180
E180
C180
C180
C180
C180
C180
C180
C180
C180
ENDCHAR

STARTCHAR o
ENCODING 111
SWIDTH 614 0
DWIDTH 12 0
BBX 10 11 1 0
BITMAP
1E00
6180
6180
C0C0
C0C0
C0C0
C0C0
C0C0
6180
6180
1E00
ENDCHAR

STARTCHAR p
ENCODING 112
SWIDTH 630 0
DWIDTH 13 0
BBX 10 15 2 -4
BITMAP
CF00
F180
C0C0
C0C0
C0C0
C0C0
C0C0
C0C0
C180
E180
DE00
C000
C000
C000
C000
ENDCHAR

STARTCHAR q
ENCODING 113
SWIDTH 630 0
DWIDTH 13 0
BBX 10 15 1 -4
BITMAP
1EC0
61C0
60C0
C0C0
C0C0
C0C0
C0C0
C0C0
C0C0
63C0
3CC0
00C0
00C0
00C0
00C0
ENDCHAR

STARTCHAR r
ENCODING 114
SWIDTH 409 0
DWIDTH 8 0
BBX 6 11 2 0
BITMAP
DC
E0
E0
C0
C0
C0
C0
C0
C0
C0
C0
ENDCHAR

STARTCHAR s
ENCODING 115
SWIDTH 510 0
DWIDTH 10 0
BBX 7 11 2 0
BITMAP
7C
C0
C0
C0
70
3C
0E
06
06
84
F8
ENDCHAR

STARTCHAR t
ENCODING 116
SWIDTH 374 0
DWIDTH 7 0
BBX 6 13 1 0
BITMAP
60
60
FC
60
60
60
60
60
60
60
60
70
3C
ENDCHAR

STARTCHAR u
ENCODING 117
SWIDTH 620 0
DWIDTH 12 0
BBX 9 11 2 0
BITMAP
C180
C180
C180
C180
C180
C180
C180
C180
C380
C780
7980
ENDCHAR

STARTCHAR v
ENCODING 118
SWIDTH 518 0
DWIDTH 10 0
BBX 10 11 0 0
BITMAP
C0C0
4080
6080
6180
2100
3300
3200
1200
1E00
0C00
0C00
ENDCHAR

STARTCHAR w
ENCODING 119
SWIDTH 770 0
DWIDTH 15 0
BBX 15 11 0 0
BITMAP
C182
4384
4284
6284
62CC
2448
2448
3458
3C70
1830
1830
ENDCHAR

STARTCHAR x
ENCODING 120
SWIDTH 613 0
DWIDTH 12 0
BBX 10 11 1 0
BITMAP
E0C0
6080
3100
1B00
0E00
0C00
0E00
1300
2300
6180
C0C0
ENDCHAR

STARTCHAR y
ENCODING 121
SWIDTH 522 0
DWIDTH 10 0
BBX 10 15 0 -4
BITMAP
C0C0
6080
6180
6180
3100
3300
3200
1A00
1E00
0C00
0C00
0800
0800
1800
1000
ENDCHAR

STARTCHAR z
ENCODING 122
SWIDTH 573 0
DWIDTH 11 0
BBX 8 11 2 0
BITMAP
FF
03
06
04
0C
18
30
20
60
C0
FF
ENDCHAR

STARTCHAR braceleft
ENCODING 123
SWIDTH 325 0
DWIDTH 7 0
BBX 4 18 1 -3
BITMAP
10
30
40
40
40
40
40
40
40
80
40
40
40
40
40
40
40
30
ENDCHAR

STARTCHAR bar
ENCODING 124
SWIDTH 265 0
DWIDTH 5 0
BBX 1 18 2 -3
BITMAP
80
80
80
80
80
80
80
80
80
80
80
80
80
80
80
80
80
80
ENDCHAR

STARTCHAR braceright
ENCODING 125
SWIDTH 325 0
DWIDTH 7 0
BBX 4 18 2 -3
BITMAP
80
C0
20
20
20
20
20
20
20
10
20
20
20
20
20
20
20
C0
ENDCHAR

STARTCHAR asciitilde
ENCODING 126
SWIDTH 633 0
DWIDTH 13 0
BBX 11 3 1 4
BITMAP
7820
8E20
81C0
ENDCHAR

STARTCHAR exclamdown
ENCODING 161
SWIDTH 316 0
DWIDTH 6 0
BBX 2 15 2 -4
BITMAP
C0
C0
00
00
80
80
80
80
80
80
C0
C0
C0
C0
C0
ENDCHAR

STARTCHAR cent
ENCODING 162
SWIDTH 633 0
DWIDTH 13 0
BBX 8 14 2 0
BITMAP
08
08
3F
69
C8
C8
C8
C8
C8
48
69
3F
08
08
ENDCHAR

STARTCHAR sterling
ENCODING 163
SWIDTH 633 0
DWIDTH 13 0
BBX 8 14 3 0
BITMAP
0F
10
30
30
30
30
FC
30
30
30
30
60
E0
FF
ENDCHAR

STARTCHAR currency
ENCODING 164
SWIDTH 633 0
DWIDTH 13 0
BBX 10 10 1 3
BITMAP
8040
5E80
2100
4080
4080
4080
4080
2100
5E80
8040
ENDCHAR

STARTCHAR yen
ENCODING 165
SWIDTH 633 0
DWIDTH 13 0
BBX 12 14 0 0
BITMAP
E030
6040
3040
1880
1D00
0F00
0600
3FC0
0600
0600
3FC0
0600
0600
0600
ENDCHAR

STARTCHAR brokenbar
ENCODING 166
SWIDTH 265 0
DWIDTH 5 0
BBX 1 18 2 -3
BITMAP
80
80
80
80
80
80
80
00
00
00
00
80
80
80
80
80
80
80
ENDCHAR

STARTCHAR section
ENCODING 167
SWIDTH 633 0
DWIDTH 13 0
BBX 8 17 2 -3
BITMAP
3F
41
80
80
E0
7C
9E
83
81
C1
7A
1E
07
01
01
82
7C
ENDCHAR

STARTCHAR dieresis
ENCODING 168
SWIDTH 614 0
DWIDTH 12 0
BBX 5 1 4 13
BITMAP
88
ENDCHAR

STARTCHAR copyright
ENCODING 169
SWIDTH 855 0
DWIDTH 17 0
BBX 15 14 1 0
BITMAP
07C0
1830
2008
43C4
C446
8802
8802
8802
8802
C446
43C4
2008
1830
07C0
ENDCHAR

STARTCHAR ordfeminine
ENCODING 170
SWIDTH 422 0
DWIDTH 8 0
BBX 7 8 1 6
BITMAP
F8
84
04
3C
C4
84
8C
76
ENDCHAR

STARTCHAR guillemotleft
ENCODING 171
SWIDTH 524 0
DWIDTH 10 0
BBX 9 9 1 1
BITMAP
0880
1100
2200
6600
CC00
6600
2200
1100
0880
ENDCHAR

STARTCHAR logicalnot
ENCODING 172
SWIDTH 633 0
DWIDTH 13 0
BBX 11 4 1 3
BITMAP
FFE0
0020
0020
0020
ENDCHAR

STARTCHAR hyphen
ENCODING 173
SWIDTH 325 0
DWIDTH 7 0
BBX 4 1 1 5
BITMAP
F0
ENDCHAR

STARTCHAR registered
ENCODING 174
SWIDTH 633 0
DWIDTH 13 0
BBX 7 8 3 6
BITMAP
38
44
BA
BA
B2
AA
44
38
ENDCHAR

STARTCHAR macron
ENCODING 175
SWIDTH 614 0
DWIDTH 12 0
BBX 6 1 3 12
BITMAP
FC
ENDCHAR

STARTCHAR degree
ENCODING 176
SWIDTH 277 0
DWIDTH 6 0
BBX 4 4 1 10
BITMAP
60
90
90
60
ENDCHAR

STARTCHAR plusminus
ENCODING 177
SWIDTH 633 0
DWIDTH 13 0
BBX 11 12 1 0
BITMAP
0400
0400
0400
0400
FFE0
0400
0400
0400
0400
0000
0000
FFE0
ENDCHAR

STARTCHAR twosuperior
ENCODING 178
SWIDTH 379 0
DWIDTH 8 0
BBX 5 9 2 5
BITMAP
F0
88
08
08
10
20
40
80
F8
ENDCHAR

STARTCHAR threesuperior
ENCODING 179
SWIDTH 379 0
DWIDTH 8 0
BBX 5 9 2 5
BITMAP
F0
08
08
08
70
08
08
08
F0
ENDCHAR

STARTCHAR acute
ENCODING 180
SWIDTH 614 0
DWIDTH 12 0
BBX 4 3 5 12
BITMAP
30
40
C0
ENDCHAR

STARTCHAR mu
ENCODING 181
SWIDTH 626 0
DWIDTH 13 0
BBX 9 15 2 -4
BITMAP
C180
C180
C180
C180
C180
C180
C180
C180
C780
FF80
FD80
C000
C000
C000
C000
ENDCHAR

STARTCHAR paragraph
ENCODING 182
SWIDTH 633 0
DWIDTH 13 0
BBX 8 17 2 -3
BITMAP
7F
F9
F9
F9
F9
79
39
09
09
09
09
09
09
09
09
09
09
ENDCHAR

STARTCHAR periodcentered
ENCODING 183
SWIDTH 633 0
DWIDTH 13 0
BBX 2 2 5 4
BITMAP
C0
C0
ENDCHAR

STARTCHAR cedilla
ENCODING 184
SWIDTH 614 0
DWIDTH 12 0
BBX 2 4 6 -4
BITMAP
80
80
40
C0
ENDCHAR

STARTCHAR onesuperior
ENCODING 185
SWIDTH 379 0
DWIDTH 8 0
BBX 2 9 3 5
BITMAP
C0
40
40
40
40
40
40
40
40
ENDCHAR

STARTCHAR ordmasculine
ENCODING 186
SWIDTH 422 0
DWIDTH 8 0
BBX 6 8 1 6
BITMAP
78
48
84
84
84
84
48
78
ENDCHAR

STARTCHAR guillemotright
ENCODING 187
SWIDTH 524 0
DWIDTH 10 0
BBX 9 9 1 1
BITMAP
8800
4400
2200
3300
1980
3300
2200
4400
8800
ENDCHAR

STARTCHAR onequarter
ENCODING 188
SWIDTH 795 0
DWIDTH 16 0
BBX 13 14 3 0
BITMAP
C010
4020
4040
40C0
4080
4130
4230
4650
4CD0
0890
1110
21F8
6010
C010
ENDCHAR

STARTCHAR onehalf
ENCODING 189
SWIDTH 795 0
DWIDTH 16 0
BBX 12 14 3 0
BITMAP
C010
4020
4040
40C0
4080
41E0
4310
4610
4C10
0820
1040
2080
6100
C1F0
ENDCHAR

STARTCHAR threequarters
ENCODING 190
SWIDTH 795 0
DWIDTH 16 0
BBX 14 14 2 0
BITMAP
F008
0810
0820
0860
7040
0898
0918
0B28
F668
0448
0888
10FC
3008
6008
ENDCHAR

STARTCHAR questiondown
ENCODING 191
SWIDTH 422 0
DWIDTH 8 0
BBX 8 15 0 -4
BITMAP
0C
0C
00
00
0C
0C
08
18
30
60
C0
C0
C0
61
3F
ENDCHAR

STARTCHAR Agrave
ENCODING 192
SWIDTH 690 0
DWIDTH 14 0
BBX 13 18 0 0
BITMAP
0C00
0200
0300
0000
0300
0700
0780
0D80
0D80
08C0
18C0
1060
3060
3FF0
2030
6030
4018
C018
ENDCHAR

STARTCHAR Aacute
ENCODING 193
SWIDTH 690 0
DWIDTH 14 0
BBX 13 18 0 0
BITMAP
0180
0200
0600
0000
0300
0700
0780
0D80
0D80
08C0
18C0
1060
3060
3FF0
2030
6030
4018
C018
ENDCHAR

STARTCHAR Acircumflex
ENCODING 194
SWIDTH 690 0
DWIDTH 14 0
BBX 13 18 0 0
BITMAP
0700
0D80
18C0
0000
0300
0700
0780
0D80
0D80
08C0
18C0
1060
3060
3FF0
2030
6030
4018
C018
ENDCHAR

STARTCHAR Atilde
ENCODING 195
SWIDTH 690 0
DWIDTH 14 0
BBX 13 17 0 0
BITMAP
0E40
0980
0000
0300
0700
0780
0D80
0D80
08C0
18C0
1060
3060
3FF0
2030
6030
4018
C018
ENDCHAR

STARTCHAR Adieresis
ENCODING 196
SWIDTH 690 0
DWIDTH 14 0
BBX 13 16 0 0
BITMAP
0880
0000
0300
0700
0780
0D80
0D80
08C0
18C0
1060
3060
3FF0
2030
6030
4018
C018
ENDCHAR

STARTCHAR Aring
ENCODING 197
SWIDTH 690 0
DWIDTH 14 0
BBX 13 18 0 0
BITMAP
0700
0500
0700
0000
0300
0700
0780
0D80
0D80
08C0
18C0
1060
3060
3FF0
2030
6030
4018
C018
ENDCHAR

STARTCHAR AE
ENCODING 198
SWIDTH 907 0
DWIDTH 18 0
BBX 17 14 0 0
BITMAP
00FF80
00E000
016000
016000
026000
066000
047F00
0C6000
086000
1FE000
306000
206000
606000
C07F80
ENDCHAR

STARTCHAR Ccedilla
ENCODING 199
SWIDTH 692 0
DWIDTH 14 0
BBX 12 18 1 -4
BITMAP
0FF0
3830
6000
6000
C000
C000
C000
C000
C000
C000
6000
7000
3810
0FE0
0400
0400
0200
0600
ENDCHAR

STARTCHAR Egrave
ENCODING 200
SWIDTH 542 0
DWIDTH 11 0
BBX 8 18 2 0
BITMAP
60
10
18
00
FF
C0
C0
C0
C0
C0
FE
C0
C0
C0
C0
C0
C0
FF
ENDCHAR

STARTCHAR Eacute
ENCODING 201
SWIDTH 542 0
DWIDTH 11 0
BBX 8 18 2 0
BITMAP
0C
10
30
00
FF
C0
C0
C0
C0
C0
FE
C0
C0
C0
C0
C0
C0
FF
ENDCHAR

STARTCHAR Ecircumflex
ENCODING 202
SWIDTH 542 0
DWIDTH 11 0
BBX 8 18 2 0
BITMAP
38
6C
C6
00
FF
C0
C0
C0
C0
C0
FE
C0
C0
C0
C0
C0
C0
FF
ENDCHAR

STARTCHAR Edieresis
ENCODING 203
SWIDTH 542 0
DWIDTH 11 0
BBX 8 16 2 0
BITMAP
44
00
FF
C0
C0
C0
C0
C0
FE
C0
C0
C0
C0
C0
C0
FF
ENDCHAR

STARTCHAR Igrave
ENCODING 204
SWIDTH 288 0
DWIDTH 6 0
BBX 4 18 1 0
BITMAP
C0
20
30
00
60
60
60
60
60
60
60
60
60
60
60
60
60
60
ENDCHAR

STARTCHAR Iacute
ENCODING 205
SWIDTH 288 0
DWIDTH 6 0
BBX 4 18 1 0
BITMAP
30
40
C0
00
60
60
60
60
60
60
60
60
60
60
60
60
60
60
ENDCHAR

STARTCHAR Icircumflex
ENCODING 206
SWIDTH 288 0
DWIDTH 6 0
BBX 7 18 -1 0
BITMAP
38
6C
C6
00
18
18
18
18
18
18
18
18
18
18
18
18
18
18
ENDCHAR

STARTCHAR Idieresis
ENCODING 207
SWIDTH 288 0
DWIDTH 6 0
BBX 5 16 0 0
BITMAP
88
00
30
30
30
30
30
30
30
30
30
30
30
30
30
30
ENDCHAR

STARTCHAR Eth
ENCODING 208
SWIDTH 749 0
DWIDTH 15 0
BBX 14 14 0 0
BITMAP
3FC0
3070
3018
3018
300C
300C
FE0C
300C
300C
300C
3018
3018
3070
3FC0
ENDCHAR

STARTCHAR Ntilde
ENCODING 209
SWIDTH 739 0
DWIDTH 15 0
BBX 10 17 2 0
BITMAP
3900
2600
0000
C040
E040
E040
B040
B840
9840
8C40
8C40
8640
8740
8340
81C0
81C0
80C0
ENDCHAR

STARTCHAR Ograve
ENCODING 210
SWIDTH 777 0
DWIDTH 16 0
BBX 13 18 1 0
BITMAP
0C00
0200
0300
0000
0F80
3060
6030
6030
C018
C018
C018
C018
C018
C018
6030
6030
3060
0F80
ENDCHAR

STARTCHAR Oacute
ENCODING 211
SWIDTH 777 0
DWIDTH 16 0
BBX 13 18 1 0
BITMAP
0180
0200
0600
0000
0F80
3060
6030
6030
C018
C018
C018
C018
C018
C018
6030
6030
3060
0F80
ENDCHAR

STARTCHAR Ocircumflex
ENCODING 212
SWIDTH 777 0
DWIDTH 16 0
BBX 13 18 1 0
BITMAP
0700
0D80
18C0
0000
0F80
3060
6030
6030
C018
C018
C018
C018
C018
C018
6030
6030
3060
0F80
ENDCHAR

STARTCHAR Otilde
ENCODING 213
SWIDTH 777 0
DWIDTH 16 0
BBX 13 17 1 0
BITMAP
0E40
0980
0000
0F80
3060
6030
6030
C018
C018
C018
C018
C018
C018
6030
6030
3060
0F80
ENDCHAR

STARTCHAR Odieresis
ENCODING 214
SWIDTH 777 0
DWIDTH 16 0
BBX 13 16 1 0
BITMAP
0880
0000
0F80
3060
6030
6030
C018
C018
C018
C018
C018
C018
6030
6030
3060
0F80
ENDCHAR

STARTCHAR multiply
ENCODING 215
SWIDTH 633 0
DWIDTH 13 0
BBX 11 12 1 0
BITMAP
C020
4060
20C0
1180
0900
0600
0600
0900
1180
20C0
C060
8020
ENDCHAR

STARTCHAR Oslash
ENCODING 216
SWIDTH 777 0
DWIDTH 16 0
BBX 13 14 1 0
BITMAP
0F88
3070
6030
6070
C0D8
C198
C118
C218
C418
C818
7830
7030
3060
CF80
ENDCHAR

STARTCHAR Ugrave
ENCODING 217
SWIDTH 693 0
DWIDTH 14 0
BBX 10 18 2 0
BITMAP
1800
0400
0600
0000
C0C0
C0C0
C0C0
C0C0
C0C0
C0C0
C0C0
C0C0
C0C0
C0C0
C0C0
C0C0
6180
3F00
ENDCHAR

STARTCHAR Uacute
ENCODING 218
SWIDTH 693 0
DWIDTH 14 0
BBX 10 18 2 0
BITMAP
0600
0800
1800
0000
C0C0
C0C0
C0C0
C0C0
C0C0
C0C0
C0C0
C0C0
C0C0
C0C0
C0C0
C0C0
6180
3F00
ENDCHAR

STARTCHAR Ucircumflex
ENCODING 219
SWIDTH 693 0
DWIDTH 14 0
BBX 10 18 2 0
BITMAP
0E00
1B00
3180
0000
C0C0
C0C0
C0C0
C0C0
C0C0
C0C0
C0C0
C0C0
C0C0
C0C0
C0C0
C0C0
6180
3F00
ENDCHAR

STARTCHAR Udieresis
ENCODING 220
SWIDTH 693 0
DWIDTH 14 0
BBX 10 16 2 0
BITMAP
1100
0000
C0C0
C0C0
C0C0
C0C0
C0C0
C0C0
C0C0
C0C0
C0C0
C0C0
C0C0
C0C0
6180
3F00
ENDCHAR

STARTCHAR Yacute
ENCODING 221
SWIDTH 623 0
DWIDTH 12 0
BBX 12 18 0 0
BITMAP
0180
0200
0600
0000
E030
6060
7040
30C0
1880
1900
0D00
0E00
0600
0600
0600
0600
0600
0600
ENDCHAR

STARTCHAR Thorn
ENCODING 222
SWIDTH 553 0
DWIDTH 11 0
BBX 9 14 2 0
BITMAP
C000
C000
FE00
C300
C180
C180
C180
C180
C300
C700
FC00
C000
C000
C000
ENDCHAR

STARTCHAR germandbls
ENCODING 223
SWIDTH 598 0
DWIDTH 12 0
BBX 10 15 2 0
BITMAP
7E00
6300
C300
C300
C200
C400
CC00
CC00
C600
C380
C180
C0C0
C0C0
C8C0
CF80
ENDCHAR

STARTCHAR agrave
ENCODING 224
SWIDTH 552 0
DWIDTH 11 0
BBX 10 15 1 0
BITMAP
3000
0800
0C00
0000
3E00
4300
0300
0300
0300
3F00
6300
C300
C300
C500
79C0
ENDCHAR

STARTCHAR aacute
ENCODING 225
SWIDTH 552 0
DWIDTH 11 0
BBX 10 15 1 0
BITMAP
0600
0800
1800
0000
3E00
4300
0300
0300
0300
3F00
6300
C300
C300
C500
79C0
ENDCHAR

STARTCHAR acircumflex
ENCODING 226
SWIDTH 552 0
DWIDTH 11 0
BBX 10 15 1 0
BITMAP
1C00
3600
6300
0000
3E00
4300
0300
0300
0300
3F00
6300
C300
C300
C500
79C0
ENDCHAR

STARTCHAR atilde
ENCODING 227
SWIDTH 552 0
DWIDTH 11 0
BBX 10 14 1 0
BITMAP
3900
2600
0000
3E00
4300
0300
0300
0300
3F00
6300
C300
C300
C500
79C0
ENDCHAR

STARTCHAR adieresis
ENCODING 228
SWIDTH 552 0
DWIDTH 11 0
BBX 10 13 1 0
BITMAP
2200
0000
3E00
4300
0300
0300
0300
3F00
6300
C300
C300
C500
79C0
ENDCHAR

STARTCHAR aring
ENCODING 229
SWIDTH 552 0
DWIDTH 11 0
BBX 10 15 1 0
BITMAP
1C00
1400
1C00
0000
3E00
4300
0300
0300
0300
3F00
6300
C300
C300
C500
79C0
ENDCHAR

STARTCHAR ae
ENCODING 230
SWIDTH 851 0
DWIDTH 17 0
BBX 14 11 1 0
BITMAP
3EF0
4398
030C
030C
030C
3FFC
6300
C300
C300
C584
78FC
ENDCHAR

STARTCHAR ccedilla
ENCODING 231
SWIDTH 512 0
DWIDTH 10 0
BBX 8 15 1 -4
BITMAP
1F
70
60
C0
C0
C0
C0
C0
60
71
1F
10
10
08
18
ENDCHAR

STARTCHAR egrave
ENCODING 232
SWIDTH 557 0
DWIDTH 11 0
BBX 9 15 1 0
BITMAP
3000
0800
0C00
0000
1E00
6300
4180
C180
C180
FF80
C000
C000
6000
2080
1F80
ENDCHAR

STARTCHAR eacute
ENCODING 233
SWIDTH 557 0
DWIDTH 11 0
BBX 9 15 1 0
BITMAP
0600
0800
1800
0000
1E00
6300
4180
C180
C180
FF80
C000
C000
6000
2080
1F80
ENDCHAR

STARTCHAR ecircumflex
ENCODING 234
SWIDTH 557 0
DWIDTH 11 0
BBX 9 15 1 0
BITMAP
1C00
3600
6300
0000
1E00
6300
4180
C180
C180
FF80
C000
C000
6000
2080
1F80
ENDCHAR

STARTCHAR edieresis
ENCODING 235
SWIDTH 557 0
DWIDTH 11 0
BBX 9 13 1 0
BITMAP
2200
0000
1E00
6300
4180
C180
C180
FF80
C000
C000
6000
2080
1F80
ENDCHAR

STARTCHAR igrave
ENCODING 236
SWIDTH 289 0
DWIDTH 6 0
BBX 4 15 1 0
BITMAP
C0
20
30
00
60
60
60
60
60
60
60
60
60
60
60
ENDCHAR

STARTCHAR iacute
ENCODING 237
SWIDTH 289 0
DWIDTH 6 0
BBX 4 15 1 0
BITMAP
30
40
C0
00
60
60
60
60
60
60
60
60
60
60
60
ENDCHAR

STARTCHAR icircumflex
ENCODING 238
SWIDTH 289 0
DWIDTH 6 0
BBX 7 15 0 0
BITMAP
38
6C
C6
00
30
30
30
30
30
30
30
30
30
30
30
ENDCHAR

STARTCHAR idieresis
ENCODING 239
SWIDTH 289 0
DWIDTH 6 0
BBX 5 13 1 0
BITMAP
88
00
60
60
60
60
60
60
60
60
60
60
60
ENDCHAR

STARTCHAR eth
ENCODING 240
SWIDTH 602 0
DWIDTH 12 0
BBX 10 15 1 0
BITMAP
C600
7E00
FE00
3F00
1F00
6180
6180
C0C0
C0C0
C0C0
C0C0
C0C0
6180
6180
1E00
ENDCHAR

STARTCHAR ntilde
ENCODING 241
SWIDTH 620 0
DWIDTH 12 0
BBX 9 14 2 0
BITMAP
7200
4C00
0000
CF00
F180
E180
C180
C180
C180
C180
C180
C180
C180
C180
ENDCHAR

STARTCHAR ograve
ENCODING 242
SWIDTH 614 0
DWIDTH 12 0
BBX 10 15 1 0
BITMAP
1800
0400
0600
0000
1E00
6180
6180
C0C0
C0C0
C0C0
C0C0
C0C0
6180
6180
1E00
ENDCHAR

STARTCHAR oacute
ENCODING 243
SWIDTH 614 0
DWIDTH 12 0
BBX 10 15 1 0
BITMAP
0600
0800
1800
0000
1E00
6180
6180
C0C0
C0C0
C0C0
C0C0
C0C0
6180
6180
1E00
ENDCHAR

STARTCHAR ocircumflex
ENCODING 244
SWIDTH 614 0
DWIDTH 12 0
BBX 10 15 1 0
BITMAP
0E00
1B00
3180
0000
1E00
6180
6180
C0C0
C0C0
C0C0
C0C0
C0C0
6180
6180
1E00
ENDCHAR

STARTCHAR otilde
ENCODING 245
SWIDTH 614 0
DWIDTH 12 0
BBX 10 14 1 0
BITMAP
3900
2600
0000
1E00
6180
6180
C0C0
C0C0
C0C0
C0C0
C0C0
6180
6180
1E00
ENDCHAR

STARTCHAR odieresis
ENCODING 246
SWIDTH 614 0
DWIDTH 12 0
BBX 10 13 1 0
BITMAP
1100
0000
1E00
6180
6180
C0C0
C0C0
C0C0
C0C0
C0C0
6180
6180
1E00
ENDCHAR

STARTCHAR divide
ENCODING 247
SWIDTH 633 0
DWIDTH 13 0
BBX 12 11 0 0
BITMAP
0600
0600
0000
0000
0000
FFF0
0000
0000
0000
0600
0600
ENDCHAR

STARTCHAR oslash
ENCODING 248
SWIDTH 614 0
DWIDTH 12 0
BBX 10 11 1 0
BITMAP
1EC0
6180
6180
C2C0
C4C0
CCC0
C8C0
D0C0
6180
6180
DE00
ENDCHAR

STARTCHAR ugrave
ENCODING 249
SWIDTH 620 0
DWIDTH 12 0
BBX 9 15 2 0
BITMAP
3000
0800
0C00
0000
C180
C180
C180
C180
C180
C180
C180
C180
C380
C780
7980
ENDCHAR

STARTCHAR uacute
ENCODING 250
SWIDTH 620 0
DWIDTH 12 0
BBX 9 15 2 0
BITMAP
0600
0800
1800
0000
C180
C180
C180
C180
C180
C180
C180
C180
C380
C780
7980
ENDCHAR

STARTCHAR ucircumflex
ENCODING 251
SWIDTH 620 0
DWIDTH 12 0
BBX 9 15 2 0
BITMAP
1C00
3600
6300
0000
C180
C180
C180
C180
C180
C180
C180
C180
C380
C780
7980
ENDCHAR

STARTCHAR udieresis
ENCODING 252
SWIDTH 620 0
DWIDTH 12 0
BBX 9 13 2 0
BITMAP
2200
0000
C180
C180
C180
C180
C180
C180
C180
C180
C380
C780
7980
ENDCHAR

STARTCHAR yacute
ENCODING 253
SWIDTH 522 0
DWIDTH 10 0
BBX 10 19 0 -4
BITMAP
0300
0400
0C00
0000
C0C0
6080
6180
6180
3100
3300
3200
1A00
1E00
0C00
0C00
0800
0800
1800
1000
ENDCHAR

STARTCHAR thorn
ENCODING 254
SWIDTH 630 0
DWIDTH 13 0
BBX 10 18 2 -4
BITMAP
C000
C000
C000
CF00
F180
C0C0
C0C0
C0C0
C0C0
C0C0
C0C0
C180
E180
DE00
C000
C000
C000
C000
ENDCHAR

STARTCHAR ydieresis
ENCODING 255
SWIDTH 522 0
DWIDTH 10 0
BBX 10 17 0 -4
BITMAP
1100
0000
C0C0
6080
6180
6180
3100
3300
3200
1A00
1E00
0C00
0C00
0800
0800
1800
1000
ENDCHAR
ENDFONT
